<svg width="800" height="800" viewBox="0 0 800 800" fill="none" xmlns="http://www.w3.org/2000/svg">
<g clip-path="url(#clip0_94_19)">
<path d="M632.688 352.12C579.721 299.142 568.866 288.278 542.119 261.549C536.957 256.392 529.779 253.789 522.511 254.418L416.955 263.668C411.273 264.165 405.438 265.232 399.999 266.964V699.652C404.207 701.335 408.934 701.9 413.777 700.972C442.844 695.389 439.148 693.244 609.186 523.205C621.478 510.91 629.082 494.604 630.594 477.285L639.825 371.729C640.463 364.459 637.849 357.279 632.688 352.12Z" fill="#F59D00"/>
<path d="M657.553 446.813L450.89 240.15C441.248 230.507 441.248 214.873 450.89 205.231L551.185 104.936C560.825 95.2936 576.461 95.2936 586.104 104.936L792.769 311.599C802.411 321.24 802.411 336.876 792.769 346.518L692.474 446.813C682.835 456.451 667.196 456.454 657.553 446.813Z" fill="#FBC72A"/>
<path d="M386.227 700.974C361.479 696.219 349.612 681.986 339.532 671.906L190.822 523.215C178.525 510.918 170.918 494.607 169.404 477.285L160.173 371.731C159.537 364.46 162.15 357.281 167.311 352.121C211.961 307.46 229.846 289.565 257.879 261.551C263.042 256.393 270.223 253.789 277.487 254.42C388.268 264.128 404.793 260.929 428.94 285.065C464.294 320.407 562.463 418.58 583.043 439.16C618.975 475.101 612.311 519.996 586.78 545.536C574.188 558.143 557.777 565.544 540.152 566.664C537.843 603.008 508.765 632.091 472.416 634.402C469.669 677.719 429.373 709.245 386.227 700.974Z" fill="#F8B64C"/>
<path d="M583.043 439.16C562.465 418.58 464.294 320.406 428.94 285.065C419.98 276.109 412.066 270.917 399.998 267.432V702.269C437.599 702.303 469.963 673.06 472.416 634.4C508.763 632.089 537.844 603.008 540.152 566.663C557.777 565.544 574.185 558.141 586.78 545.535C612.313 519.996 618.975 475.102 583.043 439.16Z" fill="#F8B64C"/>
<path d="M412.15 539.232C402.51 529.589 386.874 529.589 377.232 539.232C367.589 548.874 367.589 564.508 377.232 574.15L465.367 662.286C469.605 653.761 472.131 644.439 472.747 634.744C482.441 634.127 491.763 631.6 500.285 627.366L412.15 539.232Z" fill="#F59D00"/>
<g filter="url(#filter0_d_94_19)">
<path d="M107.528 446.813L7.23285 346.518C-2.40932 336.876 -2.40932 321.242 7.23285 311.599L213.896 104.936C223.537 95.2936 239.173 95.2936 248.815 104.936L349.11 205.231C358.752 214.873 358.752 230.507 349.11 240.15L142.447 446.813C132.808 456.451 117.169 456.454 107.528 446.813Z" fill="#FBC72A"/>
</g>
<path d="M411.823 538.89C408.446 535.513 404.332 533.346 400.001 532.333V596.904L465.04 661.942C469.277 653.417 471.804 644.096 472.419 634.4C482.113 633.783 491.435 631.257 499.957 627.022L411.823 538.89Z" fill="#F59D00"/>
<path d="M479.56 471.152C469.919 461.51 454.284 461.51 444.641 471.152C434.999 480.793 434.999 496.429 444.641 506.071L532.777 594.207C537.013 585.683 539.541 576.36 540.157 566.665C549.849 566.049 559.168 563.522 567.693 559.286L479.56 471.152Z" fill="#F59D00"/>
</g>
<defs>
<filter id="filter0_d_94_19" x="-42.9988" y="68.7041" width="460.341" height="460.338" filterUnits="userSpaceOnUse" color-interpolation-filters="sRGB">
<feFlood flood-opacity="0" result="BackgroundImageFix"/>
<feColorMatrix in="SourceAlpha" type="matrix" values="0 0 0 0 0 0 0 0 0 0 0 0 0 0 0 0 0 0 127 0" result="hardAlpha"/>
<feOffset dx="9" dy="23"/>
<feGaussianBlur stdDeviation="26"/>
<feComposite in2="hardAlpha" operator="out"/>
<feColorMatrix type="matrix" values="0 0 0 0 0 0 0 0 0 0 0 0 0 0 0 0 0 0 0.25 0"/>
<feBlend mode="normal" in2="BackgroundImageFix" result="effect1_dropShadow_94_19"/>
<feBlend mode="normal" in="SourceGraphic" in2="effect1_dropShadow_94_19" result="shape"/>
</filter>
<clipPath id="clip0_94_19">
<rect width="800" height="800" fill="white"/>
</clipPath>
</defs>
</svg>
