<svg width="800" height="800" viewBox="0 0 800 800" fill="none" xmlns="http://www.w3.org/2000/svg">
<path d="M500 273.704V300V668.857C500 682.567 500 689.42 495.6 691.777C491.197 694.133 485.493 690.33 474.087 682.727L409.243 639.497C404.763 636.51 402.523 635.017 400 635.017C397.477 635.017 395.237 636.51 390.753 639.497L309.245 693.837C304.764 696.823 302.523 698.317 300 698.317C297.477 698.317 295.236 696.823 290.755 693.837L209.245 639.497C204.764 636.51 202.523 635.017 200 635.017C197.477 635.017 195.236 636.51 190.755 639.497L125.912 682.727C114.505 690.33 108.802 694.133 104.401 691.777C100 689.42 100 682.567 100 668.857V233.334C100 170.48 100 139.053 119.526 119.526C139.052 100 170.479 100 233.333 100H600L589.06 107.293C545.463 136.358 523.667 150.89 511.833 172.999C500 195.109 500 221.307 500 273.704Z" fill="#FBC72A"/>
<path d="M500 200C500 144.772 544.77 100 600 100C655.23 100 700 144.772 700 200V266.667C700 285.076 685.077 300 666.667 300H516.667C507.463 300 500 292.538 500 283.333V200Z" fill="#634E0F"/>
<path d="M183.333 316.667H416.667" stroke="#634E0F" stroke-width="33.3333" stroke-linecap="round"/>
<path d="M183.333 416.667H316.667" stroke="#634E0F" stroke-width="33.3333" stroke-linecap="round"/>
<path d="M183.333 516.667H383.333" stroke="#634E0F" stroke-width="33.3333" stroke-linecap="round"/>
</svg>
