<svg width="800" height="800" viewBox="0 0 800 800" fill="none" xmlns="http://www.w3.org/2000/svg">
<path d="M550.92 66.6667H249.067C208.973 66.6667 188.926 66.6667 172.816 76.6234C156.706 86.58 147.74 104.51 129.81 140.371L83.0227 258.643C72.213 285.968 62.7554 318.175 80.9514 341.25C93.1587 356.73 112.081 366.667 133.326 366.667C170.145 366.667 199.993 336.82 199.993 300C199.993 336.82 229.841 366.667 266.659 366.667C303.478 366.667 333.326 336.82 333.326 300C333.326 336.82 363.173 366.667 399.993 366.667C436.813 366.667 466.66 336.82 466.66 300C466.66 336.82 496.507 366.667 533.327 366.667C570.147 366.667 599.993 336.82 599.993 300C599.993 336.82 629.84 366.667 666.66 366.667C687.903 366.667 706.827 356.73 719.037 341.25C737.233 318.175 727.777 285.968 716.967 258.643L670.18 140.371C652.247 104.51 643.283 86.58 627.173 76.6234C611.063 66.6667 591.017 66.6667 550.92 66.6667Z" fill="#EB2A10"/>
<path d="M316.667 708.333V616.667C316.667 585.513 316.667 569.937 323.365 558.333C327.754 550.733 334.067 544.42 341.667 540.033C353.27 533.333 368.847 533.333 400 533.333C431.153 533.333 446.73 533.333 458.333 540.033C465.933 544.42 472.247 550.733 476.633 558.333C483.333 569.937 483.333 585.513 483.333 616.667V708.333H316.667Z" fill="#EB5F10"/>
<path fill-rule="evenodd" clip-rule="evenodd" d="M133.333 366.667C170.149 366.663 199.993 336.817 199.993 300C199.993 336.82 229.841 366.667 266.659 366.667C303.478 366.667 333.326 336.82 333.326 300C333.326 336.82 363.173 366.667 399.993 366.667C436.813 366.667 466.66 336.82 466.66 300C466.66 336.82 496.507 366.667 533.327 366.667C570.147 366.667 599.993 336.82 599.993 300C599.993 336.82 629.84 366.667 666.66 366.667L666.667 708.333H483.333V616.667C483.333 585.513 483.333 569.937 476.633 558.333C472.247 550.733 465.933 544.42 458.333 540.033C446.73 533.333 431.153 533.333 400 533.333C368.847 533.333 353.27 533.333 341.667 540.033C334.067 544.42 327.754 550.733 323.365 558.333C316.667 569.937 316.667 585.513 316.667 616.667V708.333H133.333V366.667Z" fill="#FBC72A"/>
<path d="M483.333 708.333H316.667H133.333H66.6666C52.8596 708.333 41.6666 719.527 41.6666 733.333C41.6666 747.14 52.8596 758.333 66.6666 758.333H733.333C747.14 758.333 758.333 747.14 758.333 733.333C758.333 719.527 747.14 708.333 733.333 708.333H666.667H483.333Z" fill="#EB5F10"/>
</svg>
